<?xml version="1.0" encoding="UTF-8"?>
<svg id="Artboard11" xmlns="http://www.w3.org/2000/svg" viewBox="0 0 1882.41 433.82">
  <defs>
    <style>
      .cls-1 {
        fill: #020202;
      }

      .cls-2 {
        fill: #5ea60e;
      }
    </style>
  </defs>
  <g>
    <path class="cls-2" d="M0,395.88l38.51-121.98h26.71l-29.9,90.28,90.64-90.28h26.13l-125.79,121.98H0Z"/>
    <path class="cls-2" d="M138.82,367.76l20.67,3.91c-8.75,8.54-17.85,15.05-27.32,19.51-9.47,4.47-19.06,6.7-28.76,6.7-15.37,0-23.36-5.02-23.98-15.06-.41-8.04,3.51-18.19,11.76-30.45,9.86-14.64,21.4-26.11,34.64-34.41,13.24-8.29,25.71-12.44,37.41-12.44,13.15,0,20.6,4.34,22.35,13.02,1.75,8.68-3.56,21.98-15.96,39.9h-58.58c-4.5,6.94-6.25,12.33-5.24,16.18,1.01,3.86,4.21,5.78,9.59,5.78,3.66,0,7.41-1,11.25-3,3.84-2,7.89-5.21,12.16-9.65ZM156.05,344.13c4.39-6.77,6.1-11.91,5.15-15.43-.96-3.52-3.82-5.28-8.59-5.28-5.1,0-10.57,1.86-16.4,5.57-5.83,3.72-10.87,8.77-15.1,15.14h34.95Z"/>
    <path class="cls-2" d="M153.14,401.71l24.53,3.24c-1.65,3.11-2.06,5.24-1.23,6.41,1.1,1.66,4.03,2.5,8.8,2.5,6.1,0,11.29-.92,15.58-2.75,2.87-1.22,5.75-3.19,8.64-5.91,2.03-1.94,4.8-5.52,8.31-10.73l8.68-12.9c-13.41,9.54-25.44,14.31-36.09,14.31-11.87,0-17.9-5.02-18.07-15.06-.1-7.93,3.83-17.81,11.78-29.62,9.97-14.81,21.15-26.13,33.54-33.95,12.39-7.82,23.89-11.73,34.48-11.73s16.71,4.8,17.35,14.39l8.35-12.4h21.88l-53.37,79.3c-7.02,10.43-13.13,18.22-18.32,23.38-5.19,5.16-10.33,9.21-15.42,12.15-5.08,2.94-10.78,5.24-17.09,6.91-6.31,1.66-13.43,2.5-21.36,2.5-14.98,0-23.87-2.57-26.69-7.7-2.82-5.13-1.57-11.64,3.73-19.51.52-.78,1.19-1.72,1.99-2.83ZM208.92,349.87c-6.31,9.37-9.11,16.24-8.41,20.59.7,4.36,3.72,6.53,9.04,6.53,5.71,0,12.04-2.23,18.99-6.7,6.94-4.46,13.37-11.08,19.27-19.84,6.16-9.15,8.85-15.95,8.06-20.39-.79-4.44-4.06-6.66-9.83-6.66s-11.69,2.18-18.25,6.53c-6.56,4.35-12.85,11-18.86,19.93Z"/>
    <path class="cls-2" d="M329.16,367.76l20.67,3.91c-8.75,8.54-17.85,15.05-27.32,19.51-9.47,4.47-19.06,6.7-28.76,6.7-15.37,0-23.36-5.02-23.98-15.06-.41-8.04,3.51-18.19,11.76-30.45,9.86-14.64,21.4-26.11,34.64-34.41,13.24-8.29,25.71-12.44,37.41-12.44,13.15,0,20.6,4.34,22.35,13.02,1.75,8.68-3.56,21.98-15.96,39.9h-58.58c-4.5,6.94-6.25,12.33-5.24,16.18,1.01,3.86,4.21,5.78,9.59,5.78,3.66,0,7.41-1,11.25-3,3.84-2,7.89-5.21,12.16-9.65ZM346.4,344.13c4.39-6.77,6.1-11.91,5.15-15.43-.96-3.52-3.82-5.28-8.59-5.28-5.1,0-10.57,1.86-16.4,5.57-5.83,3.72-10.87,8.77-15.1,15.14h34.95Z"/>
    <path class="cls-2" d="M449.57,307.52l-12.55,18.64h-15.98l-23.97,35.61c-4.85,7.21-7.53,11.41-8.03,12.61-.5,1.19-.47,2.18.09,2.95.56.78,1.61,1.16,3.17,1.16,2.16,0,5.8-.75,10.91-2.25l-10.21,18.14c-7.01,2.33-13.95,3.49-20.82,3.49-4.22,0-7.54-.71-9.97-2.12-2.43-1.41-3.68-3.24-3.75-5.49-.07-2.25.88-5.28,2.85-9.11,1.33-2.72,4.78-8.21,10.34-16.48l25.93-38.52h-10.73l12.55-18.64h10.73l11.82-17.56,32.65-13.65-21,31.2h15.98Z"/>
    <path class="cls-2" d="M460.86,334.48l-18.64-3.83c8.13-8.54,16.5-14.87,25.08-18.97,8.59-4.1,18.62-6.16,30.11-6.16,10.43,0,17.36,1.23,20.81,3.7,3.44,2.47,4.92,5.6,4.45,9.4-.48,3.8-4.13,10.78-10.97,20.93l-18.62,27.29c-5.23,7.77-8.71,13.49-10.44,17.18-1.73,3.69-3,7.64-3.78,11.86h-23.13c.43-1.55,1.23-3.85,2.4-6.91.54-1.39.88-2.3,1.02-2.75-6.61,3.88-12.84,6.8-18.69,8.74-5.86,1.94-11.36,2.91-16.52,2.91-9.1,0-14.61-2.47-16.52-7.41-1.92-4.94-.34-11.18,4.74-18.72,3.36-4.99,7.55-9.44,12.57-13.35,5.02-3.91,10.38-6.91,16.08-8.99,5.7-2.08,13.12-3.9,22.27-5.45,12.31-2.05,21.17-3.97,26.58-5.74l1.57-2.33c3.02-4.49,4.07-7.7,3.14-9.61-.93-1.91-4.48-2.87-10.63-2.87-4.16,0-7.96.82-11.39,2.45-3.43,1.64-7.25,4.51-11.45,8.61ZM479.38,353.45c-3.67,1-9.21,2.19-16.64,3.58-7.42,1.39-12.58,2.75-15.47,4.08-4.51,2.16-7.88,4.91-10.12,8.24-2.2,3.27-2.89,6.1-2.05,8.49.83,2.39,3.14,3.58,6.91,3.58,4.21,0,9.17-1.39,14.86-4.16,4.25-2.11,7.84-4.69,10.78-7.74,1.95-2,4.82-5.8,8.59-11.4l3.14-4.66Z"/>
    <path class="cls-2" d="M592.57,307.52l-12.55,18.64h-15.98l-23.97,35.61c-4.85,7.21-7.53,11.41-8.03,12.61-.5,1.19-.47,2.18.09,2.95.56.78,1.61,1.16,3.17,1.16,2.16,0,5.8-.75,10.91-2.25l-10.21,18.14c-7.01,2.33-13.95,3.49-20.82,3.49-4.22,0-7.54-.71-9.97-2.12-2.43-1.41-3.68-3.24-3.75-5.49-.07-2.25.88-5.28,2.85-9.11,1.33-2.72,4.78-8.21,10.34-16.48l25.93-38.52h-10.73l12.55-18.64h10.73l11.82-17.56,32.65-13.65-21,31.2h15.98Z"/>
    <path class="cls-2" d="M545.06,395.88l59.48-88.37h23.38l-59.48,88.37h-23.38ZM612.6,295.53l14.56-21.63h23.38l-14.56,21.63h-23.38Z"/>
    <path class="cls-2" d="M613.31,350.45c5.23-7.77,12.2-15.28,20.92-22.55,8.72-7.27,17.87-12.81,27.47-16.64,9.59-3.83,18.72-5.74,27.37-5.74,13.37,0,21.4,4.34,24.1,13.02,2.7,8.68-.41,19.65-9.34,32.91-9,13.37-20.77,24.45-35.31,33.24-14.54,8.79-28.36,13.19-41.45,13.19-8.1,0-14.59-1.83-19.48-5.49-4.89-3.66-6.86-9.03-5.93-16.1.93-7.07,4.82-15.68,11.65-25.84ZM636.44,351.7c-5.9,8.76-8.34,15.48-7.31,20.14,1.02,4.66,4.59,6.99,10.69,6.99s12.79-2.33,20.06-6.99c7.27-4.66,13.89-11.43,19.87-20.3,5.82-8.65,8.24-15.31,7.24-19.97-1-4.66-4.55-6.99-10.65-6.99s-12.8,2.33-20.1,6.99c-7.3,4.66-13.89,11.37-19.79,20.14Z"/>
    <path class="cls-2" d="M768.35,395.88h-23.38l30.36-45.1c6.42-9.54,10.08-15.71,10.96-18.51.89-2.8.73-4.98-.47-6.53-1.2-1.55-3.38-2.33-6.54-2.33-4.05,0-8.43,1.11-13.14,3.33-4.71,2.22-8.89,5.16-12.55,8.82-3.66,3.66-8.81,10.43-15.45,20.3l-26.94,40.02h-23.38l59.48-88.37h21.72l-8.74,12.98c14.43-9.98,27.5-14.98,39.2-14.98,5.16,0,9.25.93,12.27,2.79,3.02,1.86,4.65,4.23,4.9,7.12.25,2.88-.43,6.16-2.03,9.82-1.61,3.66-4.7,8.9-9.29,15.73l-36.96,54.92Z"/>
    <path class="cls-2" d="M830.72,395.88l82.11-121.98h36.86l-33.87,83.21,77.89-83.21h36.94l-82.11,121.98h-22.88l64.63-96.02-88.84,96.02h-23.71l40.5-96.02-64.63,96.02h-22.88Z"/>
    <path class="cls-2" d="M1027.39,334.48l-18.64-3.83c8.13-8.54,16.5-14.87,25.08-18.97,8.59-4.1,18.62-6.16,30.11-6.16,10.43,0,17.36,1.23,20.81,3.7,3.44,2.47,4.92,5.6,4.45,9.4-.48,3.8-4.13,10.78-10.97,20.93l-18.62,27.29c-5.23,7.77-8.71,13.49-10.44,17.18-1.73,3.69-3,7.64-3.78,11.86h-23.13c.43-1.55,1.23-3.85,2.4-6.91.55-1.39.88-2.3,1.02-2.75-6.61,3.88-12.84,6.8-18.69,8.74-5.86,1.94-11.36,2.91-16.52,2.91-9.1,0-14.61-2.47-16.53-7.41-1.92-4.94-.34-11.18,4.74-18.72,3.36-4.99,7.55-9.44,12.57-13.35,5.02-3.91,10.38-6.91,16.07-8.99,5.7-2.08,13.12-3.9,22.27-5.45,12.31-2.05,21.17-3.97,26.58-5.74l1.57-2.33c3.02-4.49,4.07-7.7,3.14-9.61-.93-1.91-4.48-2.87-10.63-2.87-4.16,0-7.96.82-11.39,2.45-3.43,1.64-7.25,4.51-11.46,8.61ZM1045.9,353.45c-3.67,1-9.21,2.19-16.64,3.58-7.42,1.39-12.58,2.75-15.48,4.08-4.51,2.16-7.88,4.91-10.12,8.24-2.2,3.27-2.89,6.1-2.05,8.49.83,2.39,3.14,3.58,6.91,3.58,4.21,0,9.17-1.39,14.86-4.16,4.25-2.11,7.84-4.69,10.78-7.74,1.95-2,4.82-5.8,8.59-11.4l3.14-4.66Z"/>
    <path class="cls-2" d="M1139.47,395.88h-23.38l30.36-45.1c6.42-9.54,10.08-15.71,10.96-18.51.89-2.8.73-4.98-.47-6.53-1.2-1.55-3.38-2.33-6.55-2.33-4.05,0-8.43,1.11-13.14,3.33-4.71,2.22-8.9,5.16-12.55,8.82-3.66,3.66-8.81,10.43-15.45,20.3l-26.94,40.02h-23.38l59.48-88.37h21.72l-8.74,12.98c14.43-9.98,27.5-14.98,39.2-14.98,5.16,0,9.25.93,12.27,2.79,3.02,1.86,4.65,4.23,4.9,7.12.25,2.88-.43,6.16-2.03,9.82-1.61,3.66-4.7,8.9-9.29,15.73l-36.96,54.92Z"/>
    <path class="cls-2" d="M1217.73,334.48l-18.64-3.83c8.13-8.54,16.5-14.87,25.08-18.97,8.59-4.1,18.62-6.16,30.11-6.16,10.43,0,17.36,1.23,20.81,3.7,3.44,2.47,4.92,5.6,4.45,9.4-.48,3.8-4.13,10.78-10.97,20.93l-18.62,27.29c-5.23,7.77-8.71,13.49-10.44,17.18-1.73,3.69-3,7.64-3.78,11.86h-23.13c.43-1.55,1.23-3.85,2.4-6.91.55-1.39.88-2.3,1.02-2.75-6.61,3.88-12.84,6.8-18.69,8.74-5.86,1.94-11.36,2.91-16.52,2.91-9.1,0-14.61-2.47-16.53-7.41-1.92-4.94-.34-11.18,4.74-18.72,3.36-4.99,7.55-9.44,12.57-13.35,5.02-3.91,10.38-6.91,16.07-8.99,5.7-2.08,13.12-3.9,22.27-5.45,12.31-2.05,21.17-3.97,26.58-5.74l1.57-2.33c3.02-4.49,4.07-7.7,3.14-9.61-.93-1.91-4.48-2.87-10.63-2.87-4.16,0-7.96.82-11.39,2.45-3.43,1.64-7.25,4.51-11.46,8.61ZM1236.25,353.45c-3.67,1-9.21,2.19-16.64,3.58-7.42,1.39-12.58,2.75-15.48,4.08-4.51,2.16-7.88,4.91-10.12,8.24-2.2,3.27-2.89,6.1-2.05,8.49.83,2.39,3.14,3.58,6.91,3.58,4.21,0,9.17-1.39,14.86-4.16,4.25-2.11,7.84-4.69,10.78-7.74,1.95-2,4.82-5.8,8.59-11.4l3.14-4.66Z"/>
    <path class="cls-2" d="M1243.35,401.71l24.53,3.24c-1.65,3.11-2.06,5.24-1.23,6.41,1.1,1.66,4.03,2.5,8.8,2.5,6.1,0,11.29-.92,15.58-2.75,2.87-1.22,5.75-3.19,8.64-5.91,2.03-1.94,4.8-5.52,8.31-10.73l8.68-12.9c-13.41,9.54-25.44,14.31-36.09,14.31-11.87,0-17.9-5.02-18.07-15.06-.1-7.93,3.83-17.81,11.78-29.62,9.97-14.81,21.15-26.13,33.54-33.95,12.39-7.82,23.89-11.73,34.48-11.73s16.71,4.8,17.35,14.39l8.34-12.4h21.88l-53.37,79.3c-7.02,10.43-13.13,18.22-18.32,23.38-5.19,5.16-10.33,9.21-15.42,12.15-5.09,2.94-10.78,5.24-17.09,6.91-6.31,1.66-13.43,2.5-21.36,2.5-14.98,0-23.87-2.57-26.69-7.7-2.82-5.13-1.57-11.64,3.73-19.51.52-.78,1.19-1.72,1.99-2.83ZM1299.13,349.87c-6.31,9.37-9.11,16.24-8.41,20.59.7,4.36,3.72,6.53,9.04,6.53,5.71,0,12.04-2.23,18.99-6.7,6.94-4.46,13.37-11.08,19.27-19.84,6.16-9.15,8.85-15.95,8.06-20.39-.79-4.44-4.06-6.66-9.83-6.66s-11.69,2.18-18.25,6.53c-6.56,4.35-12.85,11-18.86,19.93Z"/>
    <path class="cls-2" d="M1419.37,367.76l20.67,3.91c-8.75,8.54-17.85,15.05-27.32,19.51-9.47,4.47-19.06,6.7-28.76,6.7-15.37,0-23.36-5.02-23.98-15.06-.41-8.04,3.51-18.19,11.76-30.45,9.86-14.64,21.4-26.11,34.64-34.41,13.24-8.29,25.71-12.44,37.41-12.44,13.15,0,20.6,4.34,22.35,13.02,1.75,8.68-3.56,21.98-15.96,39.9h-58.58c-4.5,6.94-6.25,12.33-5.24,16.18s4.21,5.78,9.59,5.78c3.66,0,7.41-1,11.25-3,3.84-2,7.89-5.21,12.16-9.65ZM1436.61,344.13c4.39-6.77,6.1-11.91,5.15-15.43-.96-3.52-3.82-5.28-8.59-5.28-5.1,0-10.57,1.86-16.4,5.57-5.83,3.72-10.86,8.77-15.1,15.14h34.95Z"/>
    <path class="cls-2" d="M1497.51,307.52h21.55l-8.12,12.07c14.02-9.37,26.36-14.06,37.01-14.06,5.66,0,9.78,1.16,12.37,3.49,2.59,2.33,3.63,5.85,3.12,10.57,7.06-4.72,13.62-8.24,19.68-10.57,6.06-2.33,11.64-3.49,16.75-3.49,6.49,0,11.09,1.32,13.82,3.95,2.72,2.64,3.47,6.51,2.25,11.61-.93,3.77-4.23,9.88-9.91,18.31l-38.03,56.5h-23.38l34-50.51c5.9-8.76,8.9-14.42,9.01-16.97.08-3.33-2.13-4.99-6.62-4.99-3.27,0-7.02,1-11.25,3-4.23,2-8.28,4.92-12.15,8.78-3.87,3.86-8.61,9.94-14.21,18.26l-28.56,42.44h-23.38l32.6-48.43c5.79-8.6,9.11-14.15,9.95-16.64.85-2.5.81-4.35-.12-5.57-.92-1.22-2.89-1.83-5.88-1.83-3.61,0-7.51.97-11.7,2.91-4.19,1.94-8.14,4.74-11.86,8.4-3.71,3.66-8.42,9.73-14.14,18.22l-28.9,42.93h-23.38l59.48-88.37Z"/>
    <path class="cls-2" d="M1657.15,367.76l20.67,3.91c-8.75,8.54-17.85,15.05-27.32,19.51-9.47,4.47-19.06,6.7-28.76,6.7-15.37,0-23.36-5.02-23.98-15.06-.41-8.04,3.51-18.19,11.76-30.45,9.86-14.64,21.4-26.11,34.64-34.41,13.24-8.29,25.71-12.44,37.41-12.44,13.15,0,20.6,4.34,22.35,13.02,1.75,8.68-3.56,21.98-15.96,39.9h-58.58c-4.5,6.94-6.25,12.33-5.24,16.18,1.01,3.86,4.21,5.78,9.59,5.78,3.66,0,7.41-1,11.25-3,3.84-2,7.89-5.21,12.16-9.65ZM1674.38,344.13c4.39-6.77,6.1-11.91,5.15-15.43-.96-3.52-3.82-5.28-8.59-5.28-5.1,0-10.57,1.86-16.4,5.57-5.83,3.72-10.86,8.77-15.1,15.14h34.95Z"/>
    <path class="cls-2" d="M1757.93,395.88h-23.38l30.36-45.1c6.42-9.54,10.08-15.71,10.96-18.51.89-2.8.73-4.98-.47-6.53-1.2-1.55-3.38-2.33-6.55-2.33-4.05,0-8.43,1.11-13.14,3.33-4.71,2.22-8.9,5.16-12.55,8.82-3.66,3.66-8.81,10.43-15.45,20.3l-26.94,40.02h-23.38l59.48-88.37h21.72l-8.74,12.98c14.43-9.98,27.5-14.98,39.2-14.98,5.16,0,9.25.93,12.27,2.79,3.02,1.86,4.65,4.23,4.9,7.12.25,2.88-.43,6.16-2.03,9.82-1.61,3.66-4.7,8.9-9.29,15.73l-36.96,54.92Z"/>
    <path class="cls-2" d="M1877.39,307.52l-12.55,18.64h-15.98l-23.97,35.61c-4.86,7.21-7.53,11.41-8.03,12.61-.5,1.19-.47,2.18.09,2.95.56.78,1.62,1.16,3.17,1.16,2.16,0,5.8-.75,10.91-2.25l-10.21,18.14c-7.01,2.33-13.95,3.49-20.82,3.49-4.22,0-7.54-.71-9.97-2.12-2.43-1.41-3.68-3.24-3.75-5.49-.07-2.25.88-5.28,2.85-9.11,1.33-2.72,4.78-8.21,10.34-16.48l25.93-38.52h-10.73l12.54-18.64h10.73l11.82-17.56,32.65-13.65-21,31.2h15.98Z"/>
  </g>
  <g>
    <path class="cls-1" d="M225.21,212.95h-87.12l-12.66,37.58H47.61L145.91,0h70l102.76,250.52h-80.05l-13.4-37.58ZM205.85,157.47l-25.32-71.94-23.83,71.94h49.15Z"/>
    <path class="cls-1" d="M518.98,60.84h-110.95v33.64h93.08v60.84h-93.08v34.36h110.95v60.84h-185.42V0h185.42v60.84Z"/>
    <path class="cls-1" d="M699.18,250.52l-45.8-74.08h-28.3v74.08h-74.47V0h105.37c38.72,0,67.51,7.1,86.38,21.29,18.86,14.2,28.3,34.78,28.3,61.74,0,37.46-15.77,63.83-47.29,79.09l58.46,88.4h-82.66ZM625.09,115.6h27.18c11.91,0,21.34-2.33,28.3-6.98,6.95-4.65,10.43-12.11,10.43-22.37,0-8.59-3.04-14.97-9.12-19.15-6.08-4.17-15.7-6.26-28.86-6.26h-27.92v54.76Z"/>
    <path class="cls-1" d="M870.07,250.52h-74.46V0h74.46v250.52Z"/>
    <path class="cls-1" d="M1062.56,212.95h-87.12l-12.66,37.58h-77.82L983.26,0h70l102.76,250.52h-80.05l-13.4-37.58ZM1043.2,157.47l-25.32-71.94-23.83,71.94h49.15Z"/>
    <path class="cls-1" d="M1170.91,0h74.46v186.1h115.42v64.42h-189.89V0Z"/>
  </g>
  <g>
    <path d="M1566.57,154.03c-2.65,1.87-4.72,3.5-6.2,4.74-4.02-4.07-7.48-8.69-10.24-13.76,7.23,2.93,13.18,6.73,16.44,9.02Z"/>
    <path d="M1843.98,33.78c21.23,0,38.44,4.89,38.44,4.89,0,0-17.21,4.89-38.44,4.89s-38.44-4.89-38.44-4.89c0,0,17.21-4.89,38.44-4.89Z"/>
    <path d="M1820.46,64.22v38.2c0,6.59-5.34,11.94-11.94,11.94h-31.04c-6.59,0-11.94-5.34-11.94-11.94v-38.2h22.56v-24.44c0-1.66.67-3.16,1.76-4.24,1.09-1.08,2.58-1.76,4.24-1.76,3.31,0,6,2.69,6,6v24.44h20.35Z"/>
    <path d="M1788.11,1.31c21.23,0,38.44,4.89,38.44,4.89,0,0-17.21,4.89-38.44,4.89s-38.44-4.89-38.44-4.89c0,0,17.21-4.89,38.44-4.89Z"/>
    <path d="M1753.84,28.4v38.56c0,7.45-6.04,13.49-13.49,13.49h-14.56c-.98,0-1.93-.11-2.85-.3l-.14.3-44.54,12.63c-2.56-8.38-6.49-16.15-11.54-23.07,15.87-7,33.1-14.08,45.57-19.09v-22.52h15.34V7.3c0-1.66.67-3.16,1.76-4.24,1.09-1.08,2.58-1.76,4.24-1.76,3.31,0,6,2.69,6,6v21.1h14.21Z"/>
    <path d="M1728.77,241.94c1.71,3.83-1.09,8.15-5.29,8.15h-19.38c-6.56,0-9.85-7.94-5.21-12.58l7.12-7.12-29.17-82.29c1.8-3.99,3.28-8.17,4.4-12.48l47.52,106.32Z"/>
    <path d="M1676.85,1.31c21.23,0,38.44,4.89,38.44,4.89,0,0-17.21,4.89-38.44,4.89s-38.44-4.89-38.44-4.89c0,0,17.21-4.89,38.44-4.89Z"/>
    <path d="M1603.73,46.83c38.14,0,69.06,30.92,69.06,69.06s-30.92,69.06-69.06,69.06-69.06-30.92-69.06-69.06,30.92-69.06,69.06-69.06ZM1663.54,127.8c.76-3.85,1.17-7.83,1.17-11.91,0-33.68-27.3-60.98-60.98-60.98s-60.98,27.3-60.98,60.98c0,4.08.4,8.06,1.17,11.91,18.18-1.25,33.77.88,43.75,2.92,8.99,1.84,15.04,3.89,17.17,4.67,4.63-1.47,9.37-2.75,14.2-3.8,14.18-3.11,29.14-4.38,44.51-3.78ZM1659.21,141.22c.71-1.55,1.35-3.14,1.94-4.76-29.1,5.21-48.14,15.97-59.13,24.26-7.36,5.55-12.1,10.67-14.73,13.91,5.23,1.46,10.74,2.24,16.44,2.24,4.23,0,8.35-.43,12.33-1.25,1.51-2.51,4.09-6.27,8.1-10.6,6.26-6.76,17.36-16.27,35.06-23.81ZM1623.45,173.61c13.25-4.53,24.45-13.49,31.82-25.12-17.05,8.39-26.78,18.46-31.82,25.12ZM1624.89,141.93c9.2-3.94,19.22-7.05,29.88-9.3-30.19.26-53.04,8.08-67.42,15.01-11.53,5.56-19.35,11.31-23.31,14.54,5.35,4.59,11.49,8.26,18.21,10.79,2.53-3.34,7.84-9.5,16.77-16.23,7.61-5.74,16.32-10.72,25.87-14.81ZM1597,138.1c-2.77-.79-6.3-1.7-10.47-2.54-6.89-1.4-16.54-2.85-27.9-3.12,14.34,3.05,25.75,7.9,29.23,9.47,2.98-1.36,6.03-2.64,9.14-3.81ZM1570.98,151.07c3.11-1.99,6.75-4.12,10.93-6.27-7.04-2.84-20.87-7.73-35.97-9.39.37,1.08.76,2.15,1.19,3.21,11.34,3.65,20.43,9.89,23.85,12.45ZM1560.37,158.77c1.49-1.24,3.56-2.87,6.2-4.74-3.26-2.29-9.21-6.1-16.44-9.02,2.76,5.07,6.22,9.69,10.24,13.76Z"/>
    <path d="M1530.93,1.31c21.23,0,38.44,4.89,38.44,4.89,0,0-17.21,4.89-38.44,4.89s-38.44-4.89-38.44-4.89c0,0,17.21-4.89,38.44-4.89Z"/>
    <path d="M1540.8,69.91c-5.06,6.92-9.01,14.7-11.59,23.09l-44.24-12.55-.14-.3c-.92.2-1.87.3-2.85.3h-14.56c-7.45,0-13.49-6.04-13.49-13.49V28.4h14.21V7.3c0-1.66.67-3.16,1.76-4.24,1.09-1.08,2.58-1.76,4.24-1.76,3.31,0,6,2.69,6,6v21.1h15.34v22.52c12.4,4.99,29.52,12.01,45.33,18.98Z"/>
    <path d="M1532.21,148.1l-29.17,82.29,7.12,7.12c4.64,4.64,1.35,12.58-5.21,12.58h-19.38c-4.19,0-7-4.32-5.28-8.15l47.52-106.32c1.12,4.32,2.59,8.49,4.4,12.48Z"/>
    <path d="M1419.66,1.31c21.23,0,38.44,4.89,38.44,4.89,0,0-17.21,4.89-38.44,4.89s-38.44-4.89-38.44-4.89c0,0,17.21-4.89,38.44-4.89Z"/>
    <path d="M1442.23,64.22v38.2c0,6.59-5.34,11.94-11.94,11.94h-31.04c-6.59,0-11.94-5.34-11.94-11.94v-38.2h20.35v-24.44c0-1.66.67-3.16,1.76-4.24,1.09-1.08,2.58-1.76,4.24-1.76,3.31,0,6,2.69,6,6v24.44h22.56Z"/>
    <path d="M1363.8,33.78c21.23,0,38.44,4.89,38.44,4.89,0,0-17.21,4.89-38.44,4.89s-38.44-4.89-38.44-4.89c0,0,17.21-4.89,38.44-4.89Z"/>
    <path d="M1654.77,132.64c-30.19.26-53.04,8.08-67.42,15.01-11.53,5.56-19.35,11.31-23.31,14.54,2.55,2.19,5.28,4.16,8.17,5.91,7.05-7.69,30.68-28.77,82.56-35.47Z"/>
    <path d="M1660.62,137.87c.18-.47.36-.93.53-1.4-29.1,5.21-48.14,15.97-59.13,24.26-7.36,5.55-12.1,10.67-14.73,13.91,5.23,1.46,10.74,2.24,16.44,2.24.01,0,.03,0,.04,0,11.4-23.64,47.34-36.07,56.86-39.01Z"/>
    <path d="M1547.13,138.62c11.34,3.65,20.43,9.89,23.85,12.45,1.36-.87,2.82-1.76,4.38-2.68-4.07-2.65-14.5-8.65-28.8-11.24.18.49.37.98.57,1.46Z"/>
    <path d="M1586.53,135.56c-6.43-1.31-15.27-2.65-25.64-3.05,12.5,2.1,26.09,5.76,31.71,7.34,1.45-.6,2.92-1.19,4.4-1.75-2.77-.79-6.3-1.7-10.47-2.54Z"/>
    <path d="M1604.44,115.24c-.62.6-1.34,1.06-2.12,1.43-.01.36-.06.73-.14,1.08-.15.64-.53,1.28-1.01,1.79l1.55,17.22,1.74.82,1.45-.88-1.4-19.91s.02-.56-.08-1.56Z"/>
    <path d="M1580.43,117.39c6.11,4.93,18.31,7.05,22.43,1.94,4.29-5.32-.53-16.59-6.64-21.51-14.22-11.47-32.54-10.1-32.54-10.1,0,0,2.53,18.2,16.75,29.67Z"/>
    <path d="M1584.59,84.49c2.53,2.64,8.04,4.34,10.24,2.22,2.3-2.2.74-7.69-1.79-10.33-5.89-6.14-14.43-6.59-14.43-6.59,0,0,.09,8.55,5.97,14.69Z"/>
    <path d="M1599.58,86.21c-1.38,4.64.26,12.1,4.15,13.26,4.04,1.2,9.35-4.19,10.73-8.83,3.22-10.8-1.86-20.95-1.86-20.95,0,0-9.8,5.71-13.02,16.51Z"/>
    <path d="M1619.74,85.3c-2.05,1.97-3.36,6.25-1.71,7.97,1.72,1.78,5.98.56,8.03-1.41,4.76-4.58,5.1-11.23,5.1-11.23,0,0-6.65.08-11.41,4.67Z"/>
    <path d="M1610.95,100.64c-3.21,1.88-6.2,6.93-4.63,9.62,1.64,2.8,7.44,2.55,10.66.67,7.48-4.38,9.94-12.74,9.94-12.74,0,0-8.5-1.94-15.97,2.44Z"/>
  </g>
</svg>